Coordinates
version=1
nRows=20
nColumns=30
inDegrees=yes

Units are S.I. units (second, meters, Newtons, ...)
Angles are in degrees.

endheader
time	floatyaw	floatroll	floatpitch	floatx	floaty	floatz	pro_sup_l	deviation_l	flexion_l	cmc_flexion_l	cmc_abduction_l	mp_flexion_l	ip_flexion_l	2mcp_flexion_l	2mcp_abduction_l	2pm_flexion_l	2md_flexion_l	3mcp_flexion_l	3mcp_abduction_l	3pm_flexion_l	3md_flexion_l	4mcp_flexion_l	4mcp_abduction_l	4pm_flexion_l	4md_flexion_l	5mcp_flexion_l	5mcp_abduction_l	5pm_flexion_l	5md_flexion_l
-1.495000	3.307552	-2.313296	98.008251	-0.107117	-0.192831	-0.030260	88.451822	0.515387	-1.524607	20.570700	1.413961	-21.049031	-34.655991	34.880194	8.840417	44.997013	32.192621	22.150204	4.973658	43.979755	30.478454	12.990803	-4.545641	58.197073	40.349405	10.784787	-10.001039	56.790820	40.764697
-1.485000	3.307552	-2.313296	98.008251	-0.107100	-0.192816	-0.030250	88.469805	0.519246	-1.518476	20.558745	1.419073	-21.051207	-34.652837	34.878660	8.835842	45.026501	32.203133	22.149684	4.974291	44.003135	30.486547	12.998136	-4.543664	58.204401	40.362028	10.805595	-10.004081	56.797392	40.756582
-1.475000	3.307552	-2.313296	98.008251	-0.107077	-0.192792	-0.030236	88.488943	0.521340	-1.506973	20.546168	1.431878	-21.054984	-34.651030	34.877126	8.829424	45.061907	32.216472	22.148933	4.976755	44.026228	30.491586	13.012887	-4.543316	58.213247	40.370868	10.814230	-10.003456	56.813502	40.756035
-1.465000	3.307552	-2.313296	98.008251	-0.107045	-0.192754	-0.030213	88.508417	0.522055	-1.492270	20.532202	1.446199	-21.060296	-34.650631	34.878667	8.821490	45.097988	32.231093	22.152602	4.979806	44.047228	30.493491	13.036532	-4.543895	58.218239	40.373722	10.813567	-9.996801	56.835068	40.762284
-1.455000	3.307552	-2.313296	98.008251	-0.107003	-0.192700	-0.030181	88.525421	0.522354	-1.478122	20.516869	1.455459	-21.067396	-34.652211	34.884884	8.812252	45.128979	32.244828	22.164626	4.982083	44.064857	30.491911	13.068355	-4.544510	58.215085	40.369729	10.808989	-9.983281	56.855743	40.771956
-1.445000	3.307552	-2.313296	98.008251	-0.106950	-0.192630	-0.030139	88.536169	0.523798	-1.469507	20.500930	1.455827	-21.076546	-34.656528	34.895333	8.801733	45.150476	32.255603	22.185784	4.983097	44.078495	30.486829	13.106118	-4.545037	58.203326	40.360260	10.807401	-9.964397	56.868614	40.780057
-1.435000	3.307552	-2.313296	98.008251	-0.106885	-0.192545	-0.030087	88.537981	0.528474	-1.472062	20.485321	1.448838	-21.087196	-34.663843	34.907833	8.790253	45.160971	32.262125	22.212859	4.983693	44.088566	30.479390	13.147229	-4.546622	58.187626	40.349170	10.815461	-9.943817	56.868637	40.781752
-1.425000	3.307552	-2.313296	98.008251	-0.106805	-0.192448	-0.030024	88.531535	0.538785	-1.491069	20.470350	1.442280	-21.097369	-34.673345	34.919079	8.778983	45.162556	32.264336	22.239904	4.985560	44.096787	30.472192	13.189395	-4.551108	58.176446	40.341883	10.837286	-9.926185	56.855079	40.774308
-1.415000	3.307552	-2.313296	98.008251	-0.106706	-0.192339	-0.029953	88.522249	0.556961	-1.529818	20.455363	1.448432	-21.103802	-34.683075	34.925046	8.769832	45.160460	32.263516	22.260687	4.990104	44.105402	30.468435	13.230218	-4.559575	58.178086	40.343232	10.872463	-9.915284	56.832552	40.758294
-1.405000	3.307552	-2.313296	98.008251	-0.106584	-0.192221	-0.029875	88.519704	0.584113	-1.587714	20.439429	1.479737	-21.102842	-34.690369	34.921190	8.764399	45.161302	32.261879	22.270821	4.997403	44.115224	30.470124	13.266236	-4.570994	58.195617	40.354800	10.915421	-9.912233	56.809174	40.737179
-1.395000	3.307552	-2.313296	98.008251	-0.106433	-0.192092	-0.029791	88.534504	0.618907	-1.658981	20.422783	1.543410	-21.091722	-34.692633	34.902954	8.762651	45.170380	32.261677	22.268675	5.005913	44.123720	30.476454	13.292722	-4.582090	58.223385	40.373119	10.956909	-9.914547	56.791894	40.715231
-1.385000	3.307552	-2.313296	98.008251	-0.106248	-0.191951	-0.029704	88.573387	0.656648	-1.733108	20.407916	1.637494	-21.069750	-34.688216	34.866973	8.762414	45.189019	32.264121	22.255214	5.013130	44.125022	30.483677	13.305311	-4.588776	58.247589	40.390021	10.987470	-9.916695	56.781597	40.694913
-1.375000	3.307552	-2.313296	98.008251	-0.106030	-0.191800	-0.029611	88.635204	0.690094	-1.797577	20.399132	1.750477	-21.039065	-34.677152	34.813208	8.760267	45.213505	32.268684	22.233669	5.016865	44.112781	30.486861	13.302990	-4.588452	58.251857	40.395643	11.001399	-9.912130	56.772114	40.675782
-1.365000	3.307552	-2.313296	98.008251	-0.105780	-0.191648	-0.029511	88.710708	0.712697	-1.842196	20.400362	1.864776	-21.004725	-34.661602	34.747681	8.753458	45.236764	32.273316	22.209799	5.016439	44.084570	30.482676	13.290267	-4.581826	58.226116	40.383259	10.999038	-9.895934	56.755248	40.656049
-1.355000	3.307552	-2.313296	98.008251	-0.105498	-0.191504	-0.029402	88.786945	0.723130	-1.863016	20.412349	1.962534	-20.973811	-34.645753	34.684247	8.741594	45.252317	32.275535	22.192607	5.013080	44.045010	30.471488	13.276339	-4.573068	58.174430	40.353795	10.986293	-9.866828	56.729069	40.635620
-1.345000	3.307552	-2.313296	98.008251	-0.105188	-0.191376	-0.029284	88.853585	0.728165	-1.863632	20.431007	2.031549	-20.953260	-34.634869	34.642820	8.727000	45.258464	32.273867	22.194183	5.009262	44.005403	30.457566	13.271488	-4.568103	58.116645	40.317267	10.972313	-9.827653	56.703249	40.617893
-1.335000	3.307552	-2.313296	98.008251	-0.104854	-0.191266	-0.029159	88.906846	0.741224	-1.853072	20.448177	2.069650	-20.946807	-34.633451	34.642675	8.713500	45.260243	32.268948	22.227001	5.007378	43.979955	30.447446	13.283423	-4.571800	58.081188	40.289483	10.967009	-9.784281	56.696961	40.608502
-1.325000	3.307552	-2.313296	98.008251	-0.104504	-0.191168	-0.029033	88.948487	0.776458	-1.841577	20.454698	2.086140	-20.952513	-34.643098	34.693087	8.704443	45.267767	32.263715	22.298554	5.008466	43.980650	30.447471	13.315991	-4.585344	58.091479	40.285056	10.978997	-9.743640	56.730388	40.611992
-1.315000	3.307552	-2.313296	98.008251	-0.104151	-0.191071	-0.028910	88.981359	0.841389	-1.836592	20.444255	2.099128	-20.962788	-34.661268	34.786628	8.701121	45.291399	32.262430	22.405678	5.011626	44.013063	30.461585	13.369879	-4.604997	58.153053	40.310382	11.013193	-9.711726	56.814894	40.629060
-1.305000	3.307552	-2.313296	98.008251	-0.103814	-0.190964	-0.028794	89.005604	0.932335	-1.840711	20.415890	2.128686	-20.967495	-34.681833	34.899800	8.702346	45.336136	32.268916	22.532308	5.014414	44.074528	30.490061	13.443137	-4.623140	58.249059	40.360645	11.067896	-9.692100	56.946730	40.656228
